<svg width="34" height="34" viewBox="0 0 34 34" fill="none" xmlns="http://www.w3.org/2000/svg">
<g clip-path="url(#clip0)">
<path d="M33.3393 27.0355L29.5701 24.5224L26.2193 22.289C25.5727 21.8587 24.7036 21.9998 24.2262 22.6126L22.1529 25.278C21.7075 25.8564 20.9063 26.0226 20.2676 25.669C18.8607 24.8864 17.1971 24.1496 13.5263 20.4741C9.85556 16.7986 9.11401 15.1397 8.33142 13.7328C7.97781 13.0941 8.14403 12.293 8.72242 11.8476L11.3879 9.77427C12.0006 9.29694 12.1417 8.4279 11.7115 7.78117L9.54664 4.53361L6.965 0.661104C6.52559 0.00196302 5.64598 -0.195926 4.96666 0.211472L1.9893 1.99765C1.18466 2.47172 0.593191 3.23724 0.337397 4.13551C-0.4768 7.10403 -0.640954 13.6525 9.85377 24.1472C20.3485 34.6419 26.8963 34.4773 29.8649 33.663C30.7631 33.4073 31.5286 32.8158 32.0027 32.0111L33.7889 29.0338C34.1964 28.3544 33.9985 27.4749 33.3393 27.0355Z" fill="#BD1D2D"/>
<path d="M19.3445 5.27572C24.8457 5.28183 29.3038 9.7399 29.3099 15.2411C29.3099 15.5649 29.5723 15.8274 29.8961 15.8274C30.2199 15.8274 30.4824 15.5649 30.4824 15.2411C30.4756 9.09271 25.493 4.11011 19.3446 4.10333C19.0208 4.10333 18.7583 4.36577 18.7583 4.68956C18.7583 5.01322 19.0207 5.27572 19.3445 5.27572Z" fill="#BD1D2D"/>
<path d="M19.3445 8.79288C22.904 8.79706 25.7885 11.6816 25.7927 15.241C25.7927 15.5648 26.0551 15.8273 26.3789 15.8273C26.7026 15.8273 26.9651 15.5648 26.9651 15.241C26.9603 11.0343 23.5513 7.62527 19.3445 7.62042C19.0208 7.62042 18.7583 7.88286 18.7583 8.20665C18.7583 8.53044 19.0207 8.79288 19.3445 8.79288Z" fill="#BD1D2D"/>
<path d="M19.3445 12.3101C20.9625 12.312 22.2736 13.6232 22.2755 15.2411C22.2755 15.5648 22.5379 15.8273 22.8617 15.8273C23.1855 15.8273 23.448 15.5649 23.448 15.2411C23.4454 12.976 21.6097 11.1403 19.3446 11.1377C19.0208 11.1377 18.7583 11.4002 18.7583 11.724C18.7583 12.0477 19.0207 12.3101 19.3445 12.3101Z" fill="#BD1D2D"/>
</g>
<defs>
<clipPath id="clip0">
<rect width="34" height="34" fill="white"/>
</clipPath>
</defs>
</svg>
