<svg width="992" height="586" viewBox="0 0 992 586" fill="none" xmlns="http://www.w3.org/2000/svg">
<path d="M895.512 524.098C890.697 518.091 887.086 511.307 884.041 504.311C882.554 500.849 881.137 497.245 879.792 493.711C879.155 492.015 878.446 490.39 877.951 488.694C877.384 486.927 877.172 486.009 878.022 484.313C878.022 483.111 878.517 482.617 879.438 482.758C880.217 482.546 880.712 482.899 880.996 483.818C881.704 483.747 882.412 483.606 883.049 483.535C878.8 470.745 876.039 457.53 874.835 444.174C874.269 437.673 874.056 431.101 874.198 424.529C874.268 421.49 874.41 418.451 874.693 415.342C874.764 414.141 874.623 410.749 875.331 409.759C876.11 409.547 876.818 409.335 877.597 409.194C878.871 408.134 879.863 408.134 880.5 409.265C881.279 409.901 881.775 411.031 882.27 411.879C895.229 433.362 903.868 457.601 908.046 482.263C910.454 496.467 911.374 510.813 910.737 525.229C910.666 526.571 912.79 526.571 912.861 525.229C913.994 496.609 909.25 467.847 898.84 441.135C896.22 434.493 893.317 427.991 890.06 421.631C888.573 418.663 886.944 415.766 885.315 412.939C883.97 410.607 882.624 407.781 880.358 406.226C875.968 403.258 873.419 407.498 872.923 411.385C872.002 418.734 871.861 426.225 872.073 433.645C872.569 450.817 875.543 467.777 880.925 484.03C881.279 485.161 883.049 485.019 882.978 483.747C882.978 480.921 879.792 479.719 877.384 480.921C873.135 482.97 875.543 488.835 876.676 491.945C881.066 503.817 885.811 515.547 893.813 525.511C894.875 526.713 896.362 525.158 895.512 524.098Z" fill="#E8E8E8"/>
<path d="M907.975 471.239C908.542 461.84 909.746 452.513 911.799 443.255C912.79 438.945 913.853 434.634 915.198 430.394C915.835 428.274 916.544 426.154 917.252 424.105C917.606 423.045 917.96 421.985 918.385 420.995C918.526 420.571 918.668 420.147 918.88 419.723C919.164 418.239 920.155 417.391 921.784 417.109C921.642 418.31 923.554 418.522 923.837 417.391C925.253 412.727 936.725 382.694 943.736 387.853C945.789 389.337 946.356 392.799 946.71 395.131C947.276 398.382 947.772 401.703 948.126 404.954C948.763 410.537 949.188 416.119 949.33 421.773C949.967 444.739 946.497 467.847 939.133 489.683C934.884 502.191 929.361 514.134 922.704 525.511C921.996 526.712 923.837 527.772 924.545 526.571C937.929 503.816 946.497 478.518 949.896 452.442C951.596 439.298 952.021 426.013 951.029 412.798C950.534 406.509 949.825 400.219 948.692 394.001C948.055 390.609 946.497 385.591 942.461 384.955C937.15 384.107 933.043 392.87 930.918 396.403C927.024 402.834 924.05 409.689 921.855 416.826C922.563 416.897 923.271 417.038 923.908 417.109C924.333 413.717 920.084 413.505 918.385 415.695C917.11 417.321 916.544 419.723 915.906 421.631C914.702 424.953 913.64 428.345 912.649 431.737C908.896 444.598 906.701 457.813 905.922 471.168C905.78 472.582 907.904 472.582 907.975 471.239Z" fill="#E8E8E8"/>
<path d="M874.693 408.982C890.13 444.951 899.832 483.182 903.372 522.119C903.514 523.462 905.638 523.462 905.497 522.119C901.885 482.758 892.113 444.245 876.535 407.851C875.968 406.65 874.127 407.781 874.693 408.982Z" fill="#E8E8E8"/>
<path d="M874.268 455.551C881.633 459.226 888.431 463.819 894.592 469.19C895.583 470.109 897.141 468.625 896.079 467.706C889.706 462.194 882.837 457.53 875.26 453.714C874.127 453.149 872.994 454.986 874.268 455.551Z" fill="#E8E8E8"/>
<path d="M893.954 434.846C891.972 438.733 890.484 442.831 889.564 447.142C889.281 448.485 891.334 449.05 891.617 447.707C892.538 443.609 893.883 439.651 895.795 435.906C896.433 434.705 894.592 433.645 893.954 434.846Z" fill="#E8E8E8"/>
<path d="M940.266 389.478C935.663 430.535 930.635 472.935 910.595 509.823C909.958 511.025 911.799 512.085 912.436 510.883C932.689 473.642 937.716 430.959 942.39 389.478C942.532 388.135 940.407 388.135 940.266 389.478Z" fill="#E8E8E8"/>
<path d="M913.782 429.687C919.447 442.973 923.625 456.753 926.386 470.886C926.67 472.229 928.723 471.663 928.44 470.321C925.607 455.975 921.288 442.054 915.623 428.627C915.056 427.355 913.286 428.415 913.782 429.687Z" fill="#E8E8E8"/>
<path d="M935.096 440.358C940.407 433.645 945.718 426.931 951.029 420.289C951.879 419.229 950.392 417.745 949.542 418.805C944.231 425.518 938.92 432.231 933.609 438.874C932.76 439.863 934.247 441.418 935.096 440.358Z" fill="#E8E8E8"/>
<path d="M55.1093 514.699C50.5065 509.752 45.8329 504.664 42.0798 499.011C40.3095 496.255 38.6808 493.429 37.4062 490.39C36.6981 488.694 33.3699 479.648 37.9727 481.486C39.1057 481.91 39.6014 480.426 39.0349 479.719C34.3613 473.783 31.2455 466.858 28.5547 459.862C26.0054 453.219 23.527 446.506 21.1902 439.792C18.6409 432.443 16.4457 424.882 15.596 417.179C14.9587 411.102 14.3213 402.763 18.7117 397.746C25.1557 390.467 31.6704 402.481 34.7153 407.003C38.8225 413.081 42.8588 419.299 46.7535 425.518C54.472 438.167 61.4825 451.311 66.6518 465.303C72.5292 481.274 75.7866 498.163 75.0077 515.194C74.9368 516.537 77.0612 516.537 77.132 515.194C78.6899 480.709 63.8901 448.555 45.8329 420.006C41.3717 413.01 36.9105 405.943 32.0245 399.23C29.2628 395.485 24.8724 391.598 19.9155 394.071C15.3835 396.262 13.684 402.127 13.2592 406.72C12.4802 415.059 14.1089 423.539 16.3749 431.524C18.9242 440.57 22.394 449.333 25.6513 458.095C28.6963 466.293 32.0953 474.278 37.5478 481.203C37.9019 480.638 38.256 480.002 38.61 479.437C36.7689 478.73 35.1402 478.942 33.5823 480.072C33.2991 480.284 33.0158 480.638 33.0867 480.991C34.6445 495.266 44.3458 506.219 53.6931 516.254C54.5428 517.243 56.0299 515.759 55.1093 514.699Z" fill="#E8E8E8"/>
<path d="M60.916 447.495C58.7208 427.709 61.3408 407.851 68.5637 389.266C67.9972 389.407 67.3599 389.549 66.7934 389.761C68.9886 391.739 70.4756 394.001 71.3254 396.827C71.6086 397.817 73.0957 397.887 73.379 396.827C78.1942 380.15 85.2046 364.25 94.4103 349.481C93.773 349.41 93.1356 349.339 92.4983 349.198C98.0217 363.261 101.492 378.101 102.625 393.223C103.616 406.791 103.97 422.409 95.6849 433.927C95.26 434.493 95.6849 435.341 96.3222 435.482C102.695 436.966 100.783 447.001 100.217 451.523C99.3671 459.014 98.0925 466.505 96.4638 473.854C93.3481 488.058 88.8161 501.979 83.0803 515.335C82.5138 516.607 84.3549 517.667 84.9214 516.395C91.6486 500.849 96.6763 484.595 99.8628 467.989C101.279 460.357 102.908 452.301 103.049 444.527C103.12 440.075 101.987 434.493 96.9595 433.362C97.172 433.857 97.3844 434.422 97.5968 434.917C105.882 423.398 105.74 407.993 104.891 394.425C103.899 378.666 100.359 363.19 94.6227 348.562C94.2686 347.714 93.2065 347.502 92.7108 348.279C83.4343 363.19 76.3531 379.231 71.467 396.121C72.1751 396.121 72.8125 396.121 73.5206 396.121C72.5292 392.941 70.9005 390.397 68.4221 388.135C67.7848 387.57 66.935 387.853 66.6518 388.63C59.3581 407.357 56.738 427.497 58.9332 447.425C58.9332 448.838 61.0576 448.838 60.916 447.495Z" fill="#E8E8E8"/>
<path d="M19.4907 397.393C29.3336 416.826 39.389 436.189 48.807 455.834C58.0126 475.196 66.1561 495.195 70.5465 516.254C70.8297 517.596 72.8833 517.031 72.6 515.688C68.2096 494.842 60.2786 475.126 51.1438 455.904C41.655 435.835 31.3163 416.119 21.261 396.262C20.6945 395.131 18.8533 396.191 19.4907 397.393Z" fill="#E8E8E8"/>
<path d="M92.9232 352.166C91.4362 373.154 84.9214 393.223 80.1062 413.575C75.2909 433.927 71.9627 454.633 70.1216 475.479C69.98 476.822 72.1044 476.822 72.246 475.479C74.1579 453.926 77.6985 432.514 82.797 411.526C87.6123 391.881 93.5605 372.447 95.0476 352.166C95.1184 350.753 92.994 350.753 92.9232 352.166Z" fill="#E8E8E8"/>
<path d="M18.3577 437.885C29.0504 441.489 38.8225 447.001 47.5324 454.209C48.5946 455.057 50.0817 453.573 49.0195 452.725C40.0263 445.305 29.9709 439.651 18.9242 435.835C17.5787 435.341 17.0122 437.39 18.3577 437.885Z" fill="#E8E8E8"/>
<path d="M66.1561 390.962C68.5637 403.753 72.1043 416.331 76.7071 428.486C77.2028 429.758 79.2564 429.192 78.7607 427.92C74.1579 415.695 70.6881 403.187 68.2097 390.397C67.9264 389.054 65.9437 389.619 66.1561 390.962Z" fill="#E8E8E8"/>
<path d="M73.8038 480.143C81.4516 470.109 89.3118 460.003 100.5 453.714C101.704 453.078 100.642 451.241 99.438 451.877C87.9663 458.378 79.8229 468.766 71.9627 479.083C71.1838 480.143 73.0249 481.203 73.8038 480.143Z" fill="#E8E8E8"/>
<path d="M810.254 527.914C869.807 527.914 929.431 527.914 988.985 527.914C991.746 527.914 991.746 523.674 988.985 523.674C929.431 523.674 869.807 523.674 810.254 523.674C807.492 523.674 807.492 527.914 810.254 527.914Z" fill="black"/>
<path d="M163.382 513.781C116.645 513.781 69.9091 513.781 23.1729 513.781C20.4112 513.781 20.4112 518.021 23.1729 518.021C69.9091 518.021 116.645 518.021 163.382 518.021C166.073 518.021 166.073 513.781 163.382 513.781Z" fill="black"/>
<path d="M639.383 562.399C703.964 562.399 768.545 562.399 833.126 562.399C851.538 562.399 869.878 562.399 888.289 562.399C891.051 562.399 891.051 558.159 888.289 558.159C823.708 558.159 759.127 558.159 694.546 558.159C676.135 558.159 657.795 558.159 639.383 558.159C636.692 558.159 636.622 562.399 639.383 562.399Z" fill="black"/>
<path d="M792.267 529.044C586.203 524.946 380.139 520.847 174.074 516.749C137.181 516.042 111.405 480.073 122.594 445.022L249.844 45.4725C257.067 22.7885 278.169 7.24188 302.033 7.10054C492.731 5.75788 683.429 4.34454 874.127 3.00187C908.966 2.71921 935.379 34.4485 928.652 68.5805L847.43 484.524C842.403 510.812 819.105 529.61 792.267 529.044Z" fill="#FCAE3F" stroke="black" stroke-width="6" stroke-miterlimit="10"/>
<path d="M788.302 525.582C582.238 521.695 376.173 517.879 170.109 513.992C133.216 513.286 107.44 479.366 118.628 446.294L245.878 69.1459C253.101 47.7339 274.203 33.1059 298.067 32.8939C488.765 31.6219 679.463 30.2792 870.161 29.0072C905.001 28.7952 931.414 58.6872 924.687 90.9112L843.465 483.606C838.437 508.339 815.14 526.077 788.302 525.582Z" fill="white" stroke="black" stroke-width="6" stroke-miterlimit="10"/>
<path d="M841.128 494.135C834.33 509.046 821.23 520.282 805.439 524.663C804.093 525.017 804.66 527.066 806.005 526.713C822.292 522.19 835.959 510.53 842.969 495.195C843.465 493.994 841.695 492.863 841.128 494.135Z" fill="black"/>
<path d="M307.485 22.7179C305.361 22.5059 304.582 20.2445 305.148 18.4072C305.927 16.0752 308.193 15.5805 310.318 16.6405C311.805 17.4179 312.584 19.2552 311.946 20.8805C311.238 22.6472 309.185 23.2125 307.485 22.5765C306.21 22.0819 305.644 24.1312 306.919 24.6259C309.68 25.6859 313.079 24.2725 314.071 21.3752C315.062 18.2659 313.079 15.2272 310.105 14.3085C306.777 13.3192 303.874 14.8739 303.024 18.3365C302.316 21.5165 304.299 24.4845 307.485 24.8379C308.831 24.9792 308.831 22.8592 307.485 22.7179Z" fill="black"/>
<path d="M305.007 21.0219C305.856 23.2126 308.972 23.9192 310.813 22.5765C312.017 21.6579 312.584 19.8912 312.017 18.3365C311.38 16.6405 309.539 15.6512 307.91 15.9339C305.644 16.3579 304.157 18.9726 305.007 21.0219Z" fill="white"/>
<path d="M331.42 22.0819C329.295 21.8699 328.516 19.6085 329.083 17.7712C329.862 15.4392 332.128 14.9446 334.252 16.0046C335.739 16.7819 336.518 18.6192 335.881 20.2445C335.173 22.0112 333.119 22.5765 331.42 21.9405C330.145 21.4459 329.579 23.4952 330.853 23.9899C333.615 25.0499 337.014 23.6365 338.005 20.7392C338.997 17.6299 337.014 14.5912 334.04 13.6726C330.712 12.6832 327.808 14.2379 326.959 17.7005C326.25 20.8805 328.233 23.8485 331.42 24.2019C332.765 24.3432 332.765 22.2232 331.42 22.0819Z" fill="black"/>
<path d="M328.941 20.3859C329.791 22.5766 332.907 23.2832 334.748 21.9406C335.952 21.0219 336.518 19.2552 335.952 17.7006C335.314 16.0045 333.473 15.0152 331.845 15.2979C329.579 15.7219 328.092 18.3365 328.941 20.3859Z" stroke="black" stroke-miterlimit="10"/>
<path d="M306.069 16.6405C307.06 18.8312 308.193 20.9512 309.539 23.0005C310.247 24.1312 312.088 23.0712 311.38 21.9405C310.105 19.8912 308.972 17.7712 307.91 15.5806C307.343 14.3792 305.502 15.4392 306.069 16.6405Z" fill="black"/>
<path d="M306.281 23.0006C307.273 22.1526 308.193 21.2339 309.185 20.3859C310.034 19.6085 310.884 18.6899 311.946 18.1245C313.15 17.4885 312.088 15.6512 310.884 16.2872C309.822 16.8525 308.972 17.7712 308.052 18.6192C306.989 19.6085 305.856 20.5979 304.794 21.5872C303.803 22.4352 305.29 23.9192 306.281 23.0006Z" fill="black"/>
<path d="M569.279 70.7006C562.977 90.9112 556.603 111.193 550.301 131.403C546.406 143.982 555.683 156.702 568.854 156.914C656.732 157.974 744.54 158.963 832.418 160.023C842.049 160.165 850.334 153.239 852.033 143.77C855.786 122.287 859.61 100.805 863.363 79.3219C865.488 67.3086 856.211 56.2846 843.961 56.2846C758.632 56.4966 673.302 56.7086 588.044 56.9206C579.476 56.9206 571.828 62.5032 569.279 70.7006Z" fill="white" stroke="black" stroke-width="3" stroke-miterlimit="10"/>
<path d="M232.07 352.449C219.819 387.57 207.569 422.691 195.318 457.813C187.741 479.578 205.728 501.767 231.22 502.05C401.312 503.817 571.474 505.654 741.566 507.421C760.26 507.633 776.335 495.69 779.521 479.225C786.886 441.983 794.179 404.671 801.544 367.43C805.651 346.513 787.665 327.433 763.942 327.433C598.737 327.786 433.531 328.139 268.326 328.493C251.685 328.563 237.027 338.245 232.07 352.449Z" fill="white" stroke="black" stroke-width="3" stroke-miterlimit="10"/>
<path d="M595.904 191.752C584.504 225.814 573.103 259.875 561.702 293.937C561.277 295.209 563.331 295.774 563.756 294.502C575.156 260.441 586.557 226.379 597.958 192.318C598.383 190.975 596.329 190.41 595.904 191.752Z" fill="#E8E8E8"/>
<path d="M597.25 191.965C626.849 190.41 656.591 188.007 686.261 188.007C715.79 188.007 745.248 190.551 774.635 193.095C775.981 193.237 775.981 191.117 774.635 190.975C745.248 188.431 715.79 185.958 686.261 185.887C656.591 185.887 626.849 188.29 597.25 189.845C595.904 189.915 595.834 192.035 597.25 191.965Z" fill="#E8E8E8"/>
<path d="M774.281 193.025C766.35 226.803 758.348 260.511 750.417 294.29C750.134 295.633 752.188 296.198 752.471 294.855C760.402 261.077 768.404 227.369 776.335 193.59C776.618 192.318 774.564 191.753 774.281 193.025Z" fill="#E8E8E8"/>
<path d="M562.977 297.611C611.554 294.997 660.202 294.361 708.85 295.845C722.73 296.269 736.538 296.834 750.417 297.611C751.763 297.682 751.763 295.562 750.417 295.491C701.84 292.806 653.192 292.241 604.544 293.725C590.664 294.149 576.856 294.714 562.977 295.491C561.631 295.562 561.56 297.682 562.977 297.611Z" fill="#E8E8E8"/>
<path d="M657.299 294.007C687.607 278.248 722.234 275.916 755.728 273.867C757.074 273.796 757.074 271.676 755.728 271.747C721.88 273.867 686.898 276.27 656.237 292.17C654.962 292.806 656.024 294.643 657.299 294.007Z" fill="#E8E8E8"/>
<path d="M705.664 226.733C708.992 242.915 710.692 259.381 710.762 275.917C710.762 277.259 712.887 277.259 712.887 275.917C712.745 259.169 711.046 242.562 707.717 226.167C707.434 224.825 705.381 225.39 705.664 226.733Z" fill="#E8E8E8"/>
<path d="M704.885 226.379C700.565 232.669 696.317 239.029 691.997 245.318C692.634 245.53 693.343 245.671 693.98 245.883C693.626 239.523 695.254 233.587 698.866 228.358C699.645 227.227 697.804 226.167 697.025 227.298C693.201 232.81 691.431 239.241 691.785 245.883C691.855 246.943 693.13 247.297 693.767 246.449C698.087 240.159 702.336 233.799 706.655 227.51C707.505 226.309 705.664 225.249 704.885 226.379Z" fill="#E8E8E8"/>
<path d="M697.733 225.814C695.325 224.754 692.918 224.259 690.297 224.401C688.74 224.471 682.437 226.379 683.358 224.047C683.712 223.129 685.695 221.927 686.474 221.291C687.961 220.09 689.518 218.959 691.147 218.041C694.759 215.991 698.795 215.002 702.902 215.638C704.247 215.85 704.814 213.801 703.469 213.589C695.254 212.317 686.686 216.769 681.375 222.917C679.959 224.542 680.171 226.803 682.508 227.51C683.783 227.863 685.199 227.369 686.403 227.086C689.873 226.309 693.272 226.026 696.671 227.51C697.874 228.217 698.937 226.379 697.733 225.814Z" fill="#E8E8E8"/>
<path d="M704.814 213.447C707.505 207.087 712.816 202.423 719.401 200.444C719.047 199.879 718.693 199.243 718.339 198.678C715.932 201.787 714.515 205.179 714.02 209.066C713.878 210.409 716.002 210.409 716.144 209.066C716.569 205.744 717.844 202.777 719.826 200.162C720.393 199.384 719.897 198.042 718.764 198.395C711.4 200.586 705.664 205.815 702.69 212.882C702.265 214.154 704.318 214.719 704.814 213.447Z" fill="#E8E8E8"/>
<path d="M715.578 210.338C721.101 207.158 727.616 207.087 733.21 210.126C733.21 209.49 733.21 208.925 733.21 208.289C728.749 210.409 724.5 212.953 720.464 215.779C719.331 216.557 720.393 218.394 721.526 217.617C725.562 214.79 729.811 212.246 734.272 210.126C734.98 209.773 734.909 208.642 734.272 208.289C727.97 204.826 720.676 204.897 714.515 208.501C713.312 209.207 714.374 211.045 715.578 210.338Z" fill="#E8E8E8"/>
<path d="M719.685 217.758C724.287 220.302 728.749 224.471 727.474 230.266C728.111 230.195 728.749 230.125 729.386 229.983C726.412 225.249 721.313 222.563 715.719 222.775C714.374 222.846 714.374 224.966 715.719 224.895C720.605 224.683 724.996 226.945 727.545 231.043C727.97 231.75 729.315 231.75 729.457 230.761C730.873 224.047 726.199 218.889 720.676 215.85C719.543 215.285 718.481 217.122 719.685 217.758Z" fill="#E8E8E8"/>
<path d="M713.878 224.542C717.135 241.502 718.339 258.674 717.419 275.917C717.348 277.259 719.472 277.259 719.543 275.917C720.464 258.533 719.26 241.078 715.932 223.977C715.648 222.634 713.595 223.199 713.878 224.542Z" fill="#E8E8E8"/>
<path d="M711.541 257.826C713.878 258.109 716.073 257.685 718.198 256.766C719.472 256.201 718.339 254.363 717.135 254.929C715.365 255.777 713.453 255.989 711.541 255.706C710.196 255.494 710.196 257.614 711.541 257.826Z" fill="#E8E8E8"/>
<path d="M572.182 268.709C583.796 269.415 595.55 269.627 607.093 270.97C612.758 271.606 618.21 273.302 623.805 274.15C629.257 274.927 634.568 274.15 640.021 273.16C663.884 268.991 687.89 271.253 711.754 273.797C713.099 273.938 713.099 271.818 711.754 271.677C688.669 269.203 665.23 266.801 642.145 270.617C635.63 271.677 629.47 272.948 622.884 271.818C617.573 270.899 612.475 269.486 607.164 268.85C595.621 267.507 583.866 267.295 572.253 266.589C570.837 266.447 570.837 268.567 572.182 268.709Z" fill="#E8E8E8"/>
<path d="M709.063 243.198C709.346 244.399 710.55 244.682 711.683 244.47C713.878 244.117 716.144 243.339 718.268 242.703C719.614 242.35 719.047 240.301 717.702 240.654C716.427 241.007 715.153 241.361 713.878 241.643C713.312 241.785 712.674 241.926 712.108 242.138C711.824 242.209 711.541 242.279 711.258 242.35C710.762 242.279 710.762 242.35 711.116 242.562C710.833 241.29 708.78 241.855 709.063 243.198Z" fill="#E8E8E8"/>
<path d="M619.343 216.203C612.333 213.942 621.468 201.929 626.354 207.299C628.124 209.207 628.053 212.529 626.425 214.507C624.584 216.769 621.397 217.122 618.919 215.709C617.715 215.002 616.653 216.839 617.856 217.546C621.468 219.595 626.354 218.818 628.62 215.214C630.673 211.893 630.107 206.734 626.495 204.685C618.635 200.303 609.217 215.214 618.848 218.323C620.122 218.677 620.689 216.627 619.343 216.203Z" fill="#E8E8E8"/>
<path d="M783.062 199.172C805.934 200.374 828.594 203.059 851.113 207.299C852.458 207.582 853.025 205.533 851.679 205.25C829.019 200.939 806.147 198.183 783.062 196.982C781.716 196.982 781.716 199.102 783.062 199.172Z" fill="#E8E8E8"/>
<path d="M782.708 205.321C804.518 207.653 826.399 210.126 848.139 212.741C849.484 212.882 849.484 210.762 848.139 210.621C826.328 208.006 804.518 205.533 782.708 203.201C781.362 203.059 781.362 205.179 782.708 205.321Z" fill="#E8E8E8"/>
<path d="M782 211.681C795.171 213.871 808.413 215.285 821.725 215.709C823.071 215.779 823.071 213.659 821.725 213.589C808.625 213.094 795.525 211.822 782.566 209.631C781.221 209.419 780.654 211.469 782 211.681Z" fill="#E8E8E8"/>
<path d="M774.069 249.77C791.984 252.314 809.971 254.434 827.957 256.13C829.302 256.271 829.302 254.151 827.957 254.01C810.112 252.314 792.338 250.194 774.635 247.721C773.29 247.509 772.723 249.558 774.069 249.77Z" fill="#E8E8E8"/>
<path d="M772.723 255.847C786.957 258.321 801.19 260.37 815.494 262.066C816.839 262.207 816.839 260.087 815.494 259.946C801.331 258.321 787.311 256.271 773.29 253.798C771.944 253.515 771.378 255.565 772.723 255.847Z" fill="#E8E8E8"/>
<path d="M771.236 264.822C789.081 268.355 807.067 270.758 825.195 271.889C826.541 271.959 826.541 269.839 825.195 269.769C807.28 268.567 789.435 266.235 771.803 262.773C770.457 262.49 769.891 264.539 771.236 264.822Z" fill="#E8E8E8"/>
<path d="M262.732 355.77C295.305 357.395 328.021 355.699 360.594 355.205C393.168 354.71 425.671 354.569 458.245 354.639C523.605 354.781 588.894 355.982 654.254 357.466C691.076 358.314 727.828 359.303 764.651 360.222C765.996 360.293 765.996 358.173 764.651 358.102C699.361 356.406 634.002 354.639 568.642 353.579C503.282 352.519 437.993 352.025 372.633 352.873C336.023 353.297 299.271 355.487 262.732 353.579C261.315 353.579 261.315 355.699 262.732 355.77Z" fill="#E8E8E8"/>
<path d="M261.457 106.882C265.706 107.518 268.68 104.621 277.107 98.4019C289.782 89.0032 292.473 88.7205 294.385 88.8619C295.305 88.9325 297.005 89.2152 305.007 95.2219C316.691 103.985 317.399 106.67 321.223 106.882C328.162 107.165 329.154 98.4019 337.439 97.6245C344.945 96.9179 347.282 103.773 356.558 103.419C363.71 103.207 367.888 98.8259 368.526 99.7445C369.304 100.946 362.577 110.203 352.876 111.687C345.724 112.747 344.166 108.578 337.226 109.567C327.596 110.981 325.755 119.743 318.674 119.107C314.496 118.683 313.929 115.574 306.706 110.627C302.882 108.013 296.226 103.49 288.932 102.925C275.549 101.935 268.609 114.867 260.536 111.122C256.642 109.355 254.447 104.55 254.942 103.985C255.296 103.419 257.775 106.317 261.457 106.882Z" fill="#BE1D2D"/>
<path d="M593.214 70.6298C588.894 90.2045 583.583 109.567 577.352 128.647C576.927 129.919 578.98 130.485 579.405 129.213C585.637 110.133 590.948 90.7699 595.267 71.1952C595.55 69.8525 593.497 69.2872 593.214 70.6298Z" fill="#E8E8E8"/>
<path d="M578.626 130.273C585.92 131.121 593.214 130.767 600.578 130.626C608.226 130.414 615.874 130.273 623.592 130.061C638.888 129.707 654.254 129.283 669.549 128.93C670.895 128.93 670.895 126.81 669.549 126.81C654.254 127.163 638.888 127.587 623.592 127.941C616.157 128.153 608.721 128.294 601.286 128.506C593.709 128.718 586.203 129.071 578.626 128.223C577.281 128.011 577.281 130.131 578.626 130.273Z" fill="#E8E8E8"/>
<path d="M604.968 90.3458C602.278 102.925 600.012 115.574 598.1 128.294C597.887 129.637 599.941 130.202 600.153 128.859C602.065 116.139 604.331 103.49 607.022 90.9112C607.305 89.5685 605.252 89.0032 604.968 90.3458Z" fill="#E8E8E8"/>
<path d="M606.597 91.4765C610.35 91.6885 614.032 92.0419 617.715 92.7485C617.502 92.3245 617.219 91.9005 617.007 91.4765C613.678 103.419 610.846 115.503 608.509 127.658C608.226 129.001 610.279 129.566 610.563 128.223C612.899 116.069 615.732 103.985 619.06 92.0419C619.202 91.5472 618.919 90.8405 618.352 90.7699C614.457 90.0632 610.634 89.6392 606.668 89.4272C605.181 89.2859 605.181 91.4059 606.597 91.4765Z" fill="#E8E8E8"/>
<path d="M624.867 102.359C623.805 110.981 622.388 119.461 620.618 127.941C620.335 129.283 622.388 129.849 622.672 128.506C624.513 119.885 625.929 111.122 626.991 102.359C627.133 101.017 625.008 101.017 624.867 102.359Z" fill="#E8E8E8"/>
<path d="M625.929 102.501C629.894 102.359 633.931 102.43 637.896 102.713C637.542 102.289 637.188 101.794 636.905 101.37C635.347 109.779 634.002 118.189 632.869 126.669C632.656 128.011 634.78 128.011 634.993 126.669C636.126 118.401 637.401 110.203 638.958 101.935C639.1 101.229 638.675 100.663 637.967 100.593C634.002 100.31 629.965 100.31 626 100.381C624.513 100.381 624.513 102.501 625.929 102.501Z" fill="#E8E8E8"/>
<path d="M650.713 83.1378C648.235 97.9072 645.331 112.677 642.145 127.305C641.862 128.647 643.915 129.213 644.198 127.87C647.385 113.242 650.288 98.4725 652.767 83.7032C653.05 82.3605 650.997 81.7952 650.713 83.1378Z" fill="#E8E8E8"/>
<path d="M652.413 82.0779C652.413 82.2192 652.413 82.2899 652.413 82.4312C652.413 82.9965 652.908 83.4912 653.475 83.4912C654.041 83.4912 654.537 82.9965 654.537 82.4312C654.537 82.2899 654.537 82.2192 654.537 82.0779C654.537 81.5125 654.041 81.0179 653.475 81.0179C652.908 81.0885 652.413 81.5125 652.413 82.0779Z" fill="#E8E8E8"/>
<path d="M652.909 83.8445C656.166 84.5512 659.282 84.9045 662.61 84.8339C662.256 84.4099 661.902 83.9152 661.618 83.4912C658.857 98.2605 656.308 113.101 653.9 127.941C653.688 129.283 655.741 129.849 655.953 128.506C658.361 113.666 660.91 98.8259 663.672 84.0565C663.814 83.4205 663.389 82.7139 662.681 82.7139C659.565 82.7139 656.591 82.4312 653.546 81.7952C652.13 81.5125 651.563 83.4912 652.909 83.8445Z" fill="#E8E8E8"/>
<path d="M685.27 79.0392C709.346 78.7565 733.351 78.8978 757.428 79.5338C758.773 79.5338 758.773 77.4139 757.428 77.4139C733.351 76.8485 709.346 76.7072 685.27 76.9192C683.924 76.9192 683.924 79.0392 685.27 79.0392Z" fill="#E8E8E8"/>
<path d="M686.898 87.6605C701.84 88.6498 716.852 88.4378 731.794 87.0245C733.139 86.8832 733.139 84.7632 731.794 84.9045C716.852 86.3179 701.84 86.5298 686.898 85.5405C685.553 85.4699 685.553 87.5898 686.898 87.6605Z" fill="#E8E8E8"/>
<path d="M683.641 98.3312C704.177 97.9779 724.712 98.3312 745.248 99.3912C746.593 99.4619 746.593 97.3419 745.248 97.2712C724.712 96.1406 704.177 95.7872 683.641 96.2112C682.296 96.2112 682.296 98.3312 683.641 98.3312Z" fill="#E8E8E8"/>
<path d="M793.825 131.121C786.603 130.202 783.133 122.994 781.079 116.846C779.167 111.051 778.459 104.974 780.654 99.1792C784.478 89.0032 794.888 80.8059 805.368 78.4739C816.273 76.0006 827.32 81.7952 832.56 91.4765C838.083 101.653 836.171 114.726 829.727 123.983C821.796 135.361 805.085 136.633 793.471 130.626C792.268 129.99 791.205 131.827 792.409 132.463C803.527 138.187 818.893 137.905 828.311 128.93C837.517 120.167 840.491 104.55 835.676 92.9605C831.073 82.0072 819.459 74.3752 807.421 75.9299C795.525 77.4845 783.558 86.5299 779.026 97.6245C775.981 105.186 777.255 113.101 780.229 120.45C782.779 126.669 786.815 132.322 793.896 133.241C795.171 133.382 795.171 131.262 793.825 131.121Z" fill="#E8E8E8"/>
<path d="M796.799 81.3005C800.128 89.8512 803.173 98.5432 806.076 107.306C806.501 108.578 808.554 108.013 808.129 106.741C805.226 97.9779 802.181 89.3565 798.853 80.7352C798.357 79.5339 796.304 80.0285 796.799 81.3005Z" fill="#E8E8E8"/>
<path d="M808.271 108.507C816.627 102.713 824.912 96.7059 832.985 90.5579C834.047 89.7099 832.985 87.8725 831.923 88.7205C823.779 94.8685 815.565 100.875 807.209 106.67C806.076 107.447 807.138 109.285 808.271 108.507Z" fill="#E8E8E8"/>
<path d="M807.917 108.578C817.406 108.154 826.753 106.599 835.888 103.914C837.163 103.561 836.667 101.511 835.321 101.865C826.399 104.479 817.264 106.034 807.917 106.387C806.572 106.529 806.572 108.649 807.917 108.578Z" fill="#E8E8E8"/>
<path d="M806.218 107.871C800.553 115.15 794.958 122.429 789.293 129.707C788.444 130.767 790.285 131.827 791.134 130.767C796.799 123.489 802.394 116.21 808.059 108.931C808.908 107.871 807.067 106.811 806.218 107.871Z" fill="#E8E8E8"/>
<path d="M264.148 352.166C262.378 351.671 263.44 349.339 264.219 348.562C265.068 347.714 267.193 347.785 268.326 347.785C270.379 347.714 272.433 347.785 274.557 347.714C278.806 347.714 283.055 347.643 287.304 347.643C295.801 347.573 304.299 347.573 312.796 347.502C329.579 347.431 346.29 347.29 363.073 347.219C396.851 347.007 430.557 346.866 464.335 346.795C531.607 346.583 598.808 346.583 666.08 346.937C684.491 347.078 702.973 347.078 721.384 347.855C730.519 348.209 739.654 348.774 748.789 349.622C753.321 350.046 757.923 350.541 762.455 351.106C763.942 351.318 765.43 351.459 766.917 351.742C768.12 351.954 768.829 351.742 769.253 352.873C770.386 355.558 766.775 358.314 764.58 358.455C763.234 358.526 763.234 360.646 764.58 360.575C769.324 360.222 772.652 355.417 770.882 350.894C770.74 350.541 770.528 350.187 770.174 350.187C736.396 345.17 702.194 345.17 668.133 344.958C632.939 344.746 597.816 344.675 562.623 344.604C492.093 344.604 421.493 344.887 350.964 345.241C331.136 345.382 311.309 345.453 291.482 345.594C286.737 345.594 282.063 345.664 277.319 345.664C273.354 345.664 268.68 345.029 264.856 346.159C261.174 347.219 258.766 353.014 263.581 354.357C264.856 354.569 265.423 352.519 264.148 352.166Z" fill="#E8E8E8"/>
<path d="M258.908 364.603C251.827 390.114 243.187 415.201 232.92 439.651C232.424 440.923 234.477 441.489 234.973 440.217C245.241 415.766 253.88 390.679 260.961 365.169C261.315 363.826 259.262 363.261 258.908 364.603Z" fill="#E8E8E8"/>
<path d="M259.616 366.723C277.815 368.914 296.58 367.43 314.85 367.218C316.195 367.218 316.195 365.098 314.85 365.098C296.58 365.381 277.815 366.794 259.616 364.603C258.2 364.462 258.27 366.582 259.616 366.723Z" fill="#E8E8E8"/>
<path d="M312.584 367.077C306.565 389.266 300.191 411.314 293.464 433.362C293.039 434.704 295.093 435.199 295.518 433.927C302.245 411.95 308.618 389.831 314.637 367.642C314.991 366.299 312.938 365.734 312.584 367.077Z" fill="#E8E8E8"/>
<path d="M233.911 440.711C243.895 440.641 253.809 440.57 263.794 440.499C268.68 440.499 273.495 440.429 278.381 440.429C282.701 440.429 287.02 440.57 291.269 439.581C292.615 439.298 292.048 437.248 290.703 437.531C286.241 438.591 281.568 438.309 276.965 438.309C272.079 438.309 267.264 438.379 262.378 438.379C252.889 438.45 243.4 438.521 233.911 438.521C232.565 438.591 232.565 440.711 233.911 440.711Z" fill="#E8E8E8"/>
<path d="M323.701 367.571C371.57 366.229 419.511 366.299 467.38 367.854C468.725 367.925 468.725 365.805 467.38 365.734C419.511 364.179 371.57 364.038 323.701 365.451C322.356 365.451 322.356 367.571 323.701 367.571Z" fill="#E8E8E8"/>
<path d="M321.718 380.008C349.477 379.938 377.235 379.938 405.065 379.867C406.41 379.867 406.41 377.747 405.065 377.747C377.306 377.818 349.548 377.818 321.718 377.889C320.302 377.889 320.302 380.008 321.718 380.008Z" fill="#E8E8E8"/>
<path d="M293.181 438.238C294.456 436.118 295.376 433.857 295.872 431.525C296.155 430.182 294.102 429.617 293.818 430.959C293.323 433.15 292.544 435.27 291.34 437.178C290.632 438.308 292.473 439.368 293.181 438.238Z" fill="#E8E8E8"/>
<path d="M558.869 373.79C553.204 400.785 547.752 427.779 542.441 454.774C542.158 456.117 544.211 456.682 544.495 455.339C549.806 428.345 555.258 401.35 560.923 374.355C561.206 373.013 559.153 372.447 558.869 373.79Z" fill="#E8E8E8"/>
<path d="M542.866 456.541C571.97 457.318 601.003 458.095 630.107 458.873C658.857 459.65 687.607 460.851 716.357 460.851C717.702 460.851 717.702 458.731 716.357 458.731C687.607 458.731 658.857 457.459 630.107 456.753C601.003 455.975 571.97 455.198 542.866 454.421C541.52 454.35 541.52 456.47 542.866 456.541Z" fill="#E8E8E8"/>
<path d="M544.99 456.329C553.771 446.859 562.552 437.319 571.332 427.85C570.837 427.85 570.341 427.85 569.845 427.85C572.749 431.454 576.148 434.422 580.113 436.825C581.317 437.531 582.379 435.694 581.175 434.987C577.352 432.726 574.094 429.829 571.332 426.366C570.978 425.942 570.199 426.013 569.845 426.366C561.065 435.835 552.284 445.375 543.503 454.845C542.583 455.834 544.07 457.318 544.99 456.329Z" fill="#E8E8E8"/>
<path d="M580.68 436.118C590.098 425.023 599.587 413.999 609.005 402.905C609.855 401.845 608.367 400.361 607.518 401.421C598.1 412.515 588.611 423.539 579.193 434.634C578.272 435.623 579.759 437.107 580.68 436.118Z" fill="#E8E8E8"/>
<path d="M607.518 401.845C609.43 404.388 611.341 406.862 613.253 409.406C613.678 409.971 614.316 410.112 614.953 409.618C623.592 402.551 632.019 395.131 640.162 387.499C641.154 386.581 639.667 385.097 638.675 386.015C630.532 393.647 622.105 401.067 613.466 408.134C614.032 408.204 614.599 408.275 615.165 408.346C613.253 405.802 611.341 403.328 609.43 400.785C608.509 399.654 606.668 400.714 607.518 401.845Z" fill="#E8E8E8"/>
<path d="M637.896 388.418C649.722 397.746 661.123 407.569 672.169 417.745C673.161 418.663 674.648 417.179 673.657 416.261C662.61 406.014 651.209 396.262 639.383 386.934C638.321 386.086 636.834 387.57 637.896 388.418Z" fill="#E8E8E8"/>
<path d="M673.444 417.462C688.031 408.205 698.512 393.93 712.745 384.178C713.878 383.401 712.816 381.563 711.683 382.341C697.45 392.093 686.969 406.367 672.382 415.625C671.249 416.331 672.311 418.169 673.444 417.462Z" fill="#E8E8E8"/>
<path d="M700.353 386.369C704.814 385.591 709.134 384.461 713.453 383.118C713.028 382.694 712.603 382.27 712.178 381.846C711.4 385.379 710.691 388.913 709.913 392.446C709.629 393.789 711.683 394.354 711.966 393.011C712.745 389.478 713.453 385.945 714.232 382.411C714.374 381.634 713.736 380.857 712.957 381.139C708.638 382.482 704.318 383.613 699.857 384.39C698.512 384.602 699.078 386.651 700.353 386.369Z" fill="#E8E8E8"/>
<path d="M584.929 379.373C582.45 404.601 579.901 429.829 577.422 455.057C577.281 456.399 579.405 456.399 579.547 455.057C582.025 429.829 584.574 404.601 587.053 379.373C587.124 378.03 584.999 378.03 584.929 379.373Z" fill="#E8E8E8"/>
<path d="M616.369 374.921C613.749 401.986 611.625 429.122 610.067 456.258C609.996 457.6 612.121 457.6 612.191 456.258C613.749 429.122 615.874 401.986 618.494 374.921C618.564 373.507 616.44 373.578 616.369 374.921Z" fill="#E8E8E8"/>
<path d="M675.71 374.143C672.948 402.41 670.966 430.677 669.762 459.084C669.691 460.427 671.815 460.427 671.886 459.084C673.09 430.747 675.073 402.41 677.835 374.143C677.976 372.801 675.852 372.801 675.71 374.143Z" fill="#E8E8E8"/>
<path d="M640.233 363.826C638.392 395.343 636.551 426.79 634.71 458.307C634.639 459.65 636.763 459.65 636.834 458.307C638.675 426.79 640.516 395.343 642.357 363.826C642.428 362.413 640.304 362.413 640.233 363.826Z" fill="#E8E8E8"/>
<path d="M419.511 379.655C433.885 380.927 448.26 377.747 462.635 379.514C463.981 379.655 463.981 377.535 462.635 377.394C448.26 375.627 433.885 378.807 419.511 377.535C418.094 377.464 418.165 379.585 419.511 379.655Z" fill="#E8E8E8"/>
<path d="M196.522 252.173C221.59 248.498 245.737 258.533 267.972 268.991C288.578 278.743 308.972 288.707 331.845 291.605C380.705 297.682 427.512 277.189 473.47 264.257C500.449 256.695 528.42 251.395 556.533 254.929C557.878 255.07 557.878 252.95 556.533 252.809C506.751 246.519 459.732 267.437 412.854 280.369C389.061 286.941 364.418 291.887 339.634 290.262C314.779 288.637 292.898 278.602 270.733 268.073C247.436 256.978 222.369 246.307 195.955 250.194C194.61 250.335 195.247 252.385 196.522 252.173Z" fill="#E8E8E8"/>
<path d="M330.641 271.464C393.027 274.786 450.81 247.014 510.505 233.658C527.712 229.842 545.203 227.157 562.906 226.803C564.251 226.803 564.251 224.683 562.906 224.683C500.591 226.097 443.587 254.717 382.971 265.67C365.693 268.779 348.202 270.334 330.641 269.415C329.295 269.203 329.295 271.323 330.641 271.464Z" fill="#E8E8E8"/>
<path d="M210.614 199.172C238.868 201.151 264.644 213.73 290.703 223.552C317.186 233.517 344.803 239.099 373.128 238.393C389.344 237.969 405.49 235.637 421.21 231.538C422.555 231.184 421.989 229.135 420.643 229.489C392.106 236.979 362.152 238.393 333.048 233.375C305.29 228.57 280.293 216.486 254.022 207.087C240.001 202.07 225.555 198.112 210.614 197.123C209.197 196.982 209.268 199.102 210.614 199.172Z" fill="#E8E8E8"/>
<path d="M402.728 63.2806C402.161 66.8139 401.241 70.2766 399.966 73.6686C399.683 74.3752 400.391 75.0112 400.958 75.0112C446.065 76.9899 491.173 77.4139 536.28 76.2125C537.626 76.1419 537.626 74.0219 536.28 74.0925C491.173 75.2939 445.994 74.9406 400.958 72.8912C401.312 73.3152 401.666 73.8099 401.949 74.2339C403.224 70.8419 404.144 67.4499 404.711 63.8459C404.994 62.5032 402.94 61.9379 402.728 63.2806Z" fill="#E8E8E8"/>
<path d="M404.144 64.0579C449.535 64.6232 494.855 65.1886 540.246 65.7539C541.591 65.7539 541.591 63.6339 540.246 63.6339C494.855 63.0686 449.535 62.5032 404.144 61.9379C402.799 61.8672 402.799 63.9872 404.144 64.0579Z" fill="#E8E8E8"/>
<path d="M540.033 64.4819C538.617 67.8032 537.555 71.2659 536.988 74.8699C536.776 76.2126 538.829 76.7779 539.042 75.4352C539.608 72.0432 540.529 68.7219 541.874 65.5419C542.37 64.2699 540.529 63.2099 540.033 64.4819Z" fill="#E8E8E8"/>
<path d="M38.3976 470.038C26.2887 472.935 14.1089 475.833 2 478.73C8.30231 518.445 13.2592 538.231 16.729 537.949C19.7031 537.737 21.6151 522.897 22.4648 493.429C29.192 491.097 35.9192 488.835 42.6464 486.503C41.2301 481.062 39.8139 475.55 38.3976 470.038Z" fill="#161616" stroke="#161616" stroke-width="3" stroke-miterlimit="10"/>
<path d="M121.177 321.991C119.62 326.655 117.283 334.075 114.875 343.474C109.847 363.049 109.635 371.387 104.536 396.262C98.4466 425.871 95.3309 430.959 93.3481 433.857C84.3549 446.718 71.8919 452.583 65.0939 455.763C48.6654 463.466 33.3699 464.173 24.3059 463.819C23.9519 467.989 23.5978 478.165 29.6877 488.411C32.7326 493.499 36.3441 496.962 39.1057 499.153C48.2406 499.647 63.9609 499.294 81.6641 492.439C89.241 489.542 108.573 481.769 123.302 462.477C134.632 447.637 137.748 433.15 141.217 416.897C147.945 385.591 139.589 380.857 147.945 354.286C152.972 338.174 158.779 330.259 154.672 324.323C149.786 317.045 134.419 318.953 121.177 321.991Z" fill="#BD1D2D"/>
<path opacity="0.09" d="M122.027 322.062C121.319 329.623 120.257 340.082 118.77 352.519C117.424 363.473 115.937 375.345 113.53 389.195C109.352 412.939 107.227 424.811 102.695 434.705C98.7299 443.326 91.0821 459.297 73.5206 471.381C55.251 483.889 36.344 485.09 27.9174 485.161C26.926 482.899 25.9346 480.002 25.2973 476.681C24.3767 471.875 24.3767 467.706 24.66 464.597C30.1126 464.667 37.6187 464.243 46.3286 462.335C61.4825 458.943 71.6087 452.795 74.2287 451.17C80.6727 447.142 87.3999 442.973 92.9232 434.775C96.6763 429.263 98.2342 424.246 100.783 413.787C104.536 398.382 106.448 390.75 108.006 379.443C109.706 366.37 113.459 347.29 122.027 322.062Z" fill="#3D3D3D"/>
<path opacity="0.12" d="M24.8016 464.385C24.5184 467.494 24.3768 471.734 25.3681 476.61C26.0763 480.214 27.1384 483.182 28.1298 485.514C37.8311 483.465 68.3513 475.691 87.2583 447.849C92.8524 439.581 96.1806 431.454 98.2342 424.458C96.3223 428.91 92.9941 435.411 87.1166 441.701C76.9905 452.513 65.3772 456.47 57.0213 459.297C49.9401 461.77 38.8933 464.597 24.8016 464.385Z" fill="#3D3D3D"/>
<path d="M116.008 534.91C110.485 550.103 104.961 565.297 99.438 580.561C138.243 585.083 158 585.719 158.708 582.327C159.275 579.713 147.803 574.554 124.435 566.993C127.621 557.594 130.879 548.195 134.065 538.797C128.046 537.525 122.027 536.182 116.008 534.91Z" fill="#161616" stroke="#161616" stroke-width="3" stroke-miterlimit="10"/>
<path d="M173.579 330.047C174.358 340.506 175.066 354.781 174.924 371.599C174.57 418.027 168.268 452.866 166.427 462.335C161.682 487.139 153.468 519.151 138.668 554.908C133.994 555.12 122.452 554.979 110.91 547.771C103.828 543.319 99.438 537.948 97.0304 534.344C101.35 526.147 106.661 515.335 111.83 502.12C120.965 478.8 124.93 460.215 127.48 447.99C133.216 420.501 136.119 406.791 133.782 392.093C131.516 378.171 127.834 375.769 128.4 363.897C128.542 361.282 130.312 330.825 149.432 325.03C159.275 322.133 169.047 327.221 173.579 330.047Z" fill="#BD1D2D"/>
<path opacity="0.14" d="M156.795 324.747C163.098 327.433 161.044 345.099 160.478 349.763C152.901 416.331 163.31 380.503 154.175 421.561C141.642 477.953 124.717 532.154 118.769 550.81C117.353 550.81 115.37 550.669 113.246 549.679C111.263 548.761 110.838 547.559 108.43 545.651C105.81 543.602 104.89 543.743 102.907 542.33C101.137 541.058 98.9416 538.797 97.3837 534.627C101.066 527.419 105.456 518.162 109.918 506.997C115.583 492.863 118.698 482.122 122.097 470.533C122.097 470.533 132.719 433.998 134.631 406.085C134.985 400.502 134.702 396.686 134.277 393.93C133.64 389.549 132.719 387.358 131.303 382.129C130.949 380.786 128.966 373.154 128.329 367.43C126.558 350.541 135.552 336.973 139.8 332.097C141.287 330.33 143.27 328.422 146.103 326.938C147.165 326.443 153.326 323.263 156.795 324.747Z" fill="#3D3D3D"/>
<path opacity="0.11" d="M140.58 439.722C139.376 456.894 135.34 461.982 123.585 504.17C118.416 522.685 114.592 537.878 112.113 547.63C110.131 546.853 107.652 545.581 105.103 543.602C101.279 540.634 99.0131 537.383 97.7385 535.122C101.279 527.843 106.024 517.455 110.626 504.523C112.467 499.435 113.671 495.549 114.804 492.015C130.95 440.358 133.499 424.67 134.278 413.929C134.915 404.813 134.419 397.463 134.278 395.131C133.57 385.379 131.87 378.666 131.87 378.666C131.87 378.666 142.917 406.367 140.58 439.722Z" fill="#3D3D3D"/>
<path d="M51.0731 298.459C51.2147 298.247 51.9228 298.318 53.3391 298.459C55.7467 298.671 56.5256 299.024 58.0835 299.166C59.5706 299.236 61.5533 299.378 62.1198 298.459C62.8987 297.258 60.4203 294.926 56.9505 289.908C51.0022 281.428 51.2855 278.46 51.7812 277.118C51.9228 276.764 52.3477 275.422 53.2682 275.21C54.4721 274.927 55.8175 276.552 57.0921 278.178C59.2165 280.792 60.0662 282.842 60.2787 282.7C60.7036 282.559 58.2251 277.259 58.7916 270.758C58.9332 268.991 59.2165 266.447 60.4911 266.094C61.6241 265.741 63.3236 267.154 64.6691 269.415C64.6691 269.133 65.0231 265.246 66.3686 264.963C67.4307 264.751 68.6346 266.8 69.8384 268.779C70.8297 270.404 71.467 271.888 71.8211 272.878C71.7503 270.899 72.8125 269.274 74.2995 268.779C75.9282 268.284 77.4153 269.557 77.4861 269.627C79.1148 271.111 78.9732 273.726 78.9732 274.644C78.8316 278.672 79.2564 285.456 80.177 295.35C82.0181 294.643 84.709 293.371 87.6831 291.392C90.7281 289.343 93.9146 286.658 101.775 277.259C104.82 273.584 106.378 271.747 109.068 268.143C118.77 255.211 124.506 247.579 130.312 236.767C132.153 233.305 135.127 227.439 141.288 222.21C143.271 220.514 147.166 217.334 149.432 218.535C151.06 219.383 151.202 222.069 151.131 226.026C151.06 234.647 150.99 238.887 149.502 244.753C146.103 258.321 139.801 267.79 138.385 269.91C132.791 278.107 127.196 282.842 119.974 288.99C112.467 295.35 106.236 300.579 96.3931 304.536C89.9491 307.08 84.8506 307.999 79.4689 308.988C70.5465 310.543 65.9437 311.32 61.3409 309.342C54.7553 306.515 50.2941 299.519 51.0731 298.459Z" fill="white"/>
<path d="M149.148 217.546C141.501 218.606 136.969 225.743 132.862 231.609C127.621 239.099 122.665 246.802 117.566 254.363C112.468 261.995 107.157 269.486 101.138 276.482C98.2342 279.803 95.2601 283.054 92.0027 286.022C88.3913 289.414 84.4258 293.301 79.6813 294.926C78.4067 295.35 78.9732 297.399 80.2478 296.975C87.6831 294.502 93.9855 287.435 99.1548 281.853C105.103 275.422 110.414 268.426 115.442 261.218C120.54 253.869 125.426 246.307 130.383 238.887C135.057 231.962 140.58 220.867 149.715 219.595C151.06 219.383 150.494 217.405 149.148 217.546Z" fill="black"/>
<path d="M82.1598 310.119C91.2238 309.271 98.8715 305.102 106.448 300.297C113.955 295.562 121.107 290.121 127.48 283.902C135.694 275.987 142.634 266.589 147.236 256.059C151.768 245.53 153.893 234.011 152.406 222.563C152.264 221.221 150.14 221.221 150.281 222.563C152.689 241.714 145.041 260.723 132.72 275.281C127.196 281.782 120.753 287.506 113.955 292.594C104.607 299.519 93.9854 306.939 82.089 308.07C80.8143 308.141 80.8143 310.261 82.1598 310.119Z" fill="black"/>
<path d="M82.1597 307.929C77.9818 307.858 73.9455 308.847 69.8384 309.13C65.0939 309.483 61.1284 308.07 57.2338 305.455C55.6759 304.395 53.9764 303.123 52.985 301.427C50.9314 297.823 55.1802 299.943 56.6672 300.367C59.0749 301.074 61.2701 300.791 63.1112 299.166C64.1734 298.247 62.6155 296.763 61.6241 297.682C58.4376 300.509 52.4893 294.219 50.3649 297.823C48.7363 300.579 52.4893 304.537 54.3304 306.021C57.517 308.635 61.4117 310.755 65.5896 311.25C71.113 311.886 76.6364 309.978 82.1597 310.119C83.5052 310.048 83.5052 307.929 82.1597 307.929Z" fill="black"/>
<path d="M63.2528 297.964C61.8366 293.23 58.65 289.555 56.1008 285.386C55.7467 284.821 51.4979 277.118 52.9142 276.482C55.3926 275.351 58.9333 282.489 59.4289 283.902C59.8538 285.174 61.9074 284.609 61.4825 283.337C60.3495 280.086 58.3668 277.047 55.3926 275.069C53.8347 274.009 51.5688 273.231 50.8606 275.634C49.9401 278.885 52.3477 283.266 53.9764 285.951C56.5256 290.121 59.8538 293.725 61.2701 298.53C61.6241 299.873 63.6777 299.307 63.2528 297.964Z" fill="black"/>
<path d="M62.1198 283.266C61.4825 280.651 60.6327 277.966 60.2079 275.281C59.9246 273.655 59.8538 272.03 59.9954 270.405C60.2079 268.285 60.6327 266.165 62.3322 268.638C64.9523 272.525 65.8021 277.825 67.0767 282.206C67.4307 283.549 69.4843 282.983 69.1303 281.641C68.0681 277.895 67.2183 273.938 65.6604 270.334C64.8815 268.567 63.1112 264.61 60.6327 264.61C58.0835 264.61 58.0127 268.567 57.8711 270.334C57.517 274.927 58.9332 279.309 60.0662 283.69C60.3495 285.174 62.4031 284.609 62.1198 283.266Z" fill="black"/>
<path d="M67.0767 273.231C66.7226 271.747 66.0145 269.274 66.581 267.79C67.6432 265.034 69.2011 269.981 69.6259 271.041C71.1838 274.786 72.0335 278.743 72.246 282.771C72.3168 284.114 74.4412 284.114 74.3704 282.771C74.0871 278.885 73.4498 275.139 72.1044 271.535C71.3254 269.345 70.1924 265.458 68.0681 264.257C63.2528 261.501 64.5982 272.101 64.9523 273.867C65.3064 275.139 67.3599 274.574 67.0767 273.231Z" fill="black"/>
<path d="M74.2287 275.705C74.1579 274.998 73.6622 271.182 74.512 270.475C76.8488 268.426 77.4861 272.171 77.7694 273.302C78.2651 275.705 78.1942 278.39 78.4067 280.863C78.7607 285.951 79.1148 290.969 79.4689 296.057C79.5397 297.399 81.6641 297.399 81.5933 296.057C81.2392 290.969 80.8851 285.951 80.5311 280.863C80.3186 277.33 80.6019 272.666 78.7607 269.486C77.7694 267.79 76.0699 266.235 74.0871 267.507C71.5379 269.203 71.8919 273.726 72.246 276.27C72.3876 277.613 74.4412 277.047 74.2287 275.705Z" fill="black"/>
<path opacity="0.09" d="M149.927 220.019C149.573 220.019 149.856 225.602 147.661 233.375C145.962 239.311 143.2 244.965 134.278 256.695C126.063 267.507 120.115 275.351 109.777 284.538C98.4466 294.643 92.7816 299.661 84.9922 301.569C68.1389 305.738 52.6309 296.057 51.1439 299.307C50.3649 301.074 54.6137 304.607 56.2424 305.809C58.2959 307.293 62.2614 309.625 71.6087 309.766C81.5932 309.907 89.241 307.505 90.9405 306.939C108.927 301.003 120.753 289.273 127.055 282.771C135.411 274.291 142.209 267.366 146.67 255.777C153.822 237.757 150.635 220.019 149.927 220.019Z" fill="#3D3D3D"/>
<path opacity="0.13" d="M148.511 247.297C148.015 247.014 145.041 251.961 140.792 257.826C140.792 257.826 130.595 271.959 117.424 283.973C110.201 290.545 97.0304 300.721 76.1407 308.706C80.4602 308.989 86.9042 308.847 94.0563 306.444C96.3223 305.667 101.987 303.547 115.654 291.675C126.559 282.206 132.649 276.977 138.739 267.79C145.324 257.967 149.219 247.65 148.511 247.297Z" fill="#3D3D3D"/>
<path d="M157.363 209.773C152.901 211.327 150.14 214.083 147.236 216.981C139.164 225.107 136.261 234.294 133.995 241.714C127.197 264.045 123.727 275.139 122.169 284.891C120.328 295.986 118.77 310.685 119.265 328.069C122.948 330.613 128.188 333.863 134.844 336.69C142.492 339.941 149.361 342.838 158.212 342.131C161.753 341.849 167.843 340.859 174.641 336.69C174.995 332.097 175.774 324.959 177.827 316.55C181.368 301.639 185.192 297.329 191.423 278.814C196.309 264.186 198.717 256.695 198.363 247.721C198.08 241.431 197.513 229.135 188.237 219.525C181.156 212.246 168.48 205.886 157.363 209.773Z" fill="white"/>
<path d="M154.176 210.267C145.679 215.355 140.509 223.835 136.261 232.527C131.729 241.926 128.33 251.819 125.851 261.995C120.682 283.195 119.407 305.173 118.557 326.938C118.487 328.281 120.611 328.281 120.682 326.938C121.461 306.162 122.665 285.315 127.338 264.963C129.604 254.999 132.72 245.177 137.039 235.849C141.217 226.733 146.387 217.334 155.238 212.105C156.371 211.398 155.309 209.561 154.176 210.267Z" fill="black"/>
<path d="M181.581 214.861C189.582 221.079 195.106 229.842 196.876 239.806C198.859 251.183 196.097 262.773 192.273 273.443C188.591 283.761 183.776 293.583 180.448 304.042C177.119 314.289 175.066 324.959 174.216 335.701C174.074 337.043 176.199 337.043 176.34 335.701C177.332 323.617 179.881 311.674 183.988 300.297C187.883 289.414 193.052 279.026 196.38 267.931C199.354 257.967 200.912 247.155 198.434 236.838C196.239 227.51 190.715 219.242 183.138 213.447C182.005 212.529 180.518 214.013 181.581 214.861Z" fill="black"/>
<path d="M118.982 328.351C127.55 335.983 138.172 341.001 149.573 342.626C158.637 343.898 170.321 343.969 176.269 335.842C177.048 334.711 175.207 333.651 174.428 334.782C168.48 342.838 155.309 341.778 146.67 340.011C136.898 338.033 127.904 333.439 120.469 326.867C119.478 325.949 117.991 327.433 118.982 328.351Z" fill="black"/>
<path opacity="0.11" d="M166.497 210.055C168.905 214.225 159.983 221.927 153.114 233.941C148.724 241.573 147.024 248.215 143.696 261.501C135.906 292.594 137.394 327.927 138.031 338.174C131.941 334.923 125.922 331.743 119.832 328.493C120.115 321.567 120.682 311.674 121.815 299.802C123.656 281.005 124.718 270.758 128.33 257.473C131.516 245.954 134.632 235.213 143.129 223.694C148.653 216.203 154.53 211.045 158.779 207.794C161.47 207.653 165.223 207.865 166.497 210.055Z" fill="#3D3D3D"/>
<path opacity="0.15" d="M139.447 231.397C140.368 231.679 136.615 246.449 130.596 279.097C126.63 300.509 125.709 308.211 128.896 317.751C133.003 329.977 141.288 337.397 139.73 339.022C138.739 340.011 134.49 338.598 119.832 327.645C119.478 312.239 120.469 290.969 126.63 266.589C131.516 247.297 138.456 231.043 139.447 231.397Z" fill="#3D3D3D"/>
<path d="M205.515 180.941C208.843 183.979 208.418 189.915 207.781 198.536C207.356 204.543 207.144 207.582 205.09 210.479C200.841 216.486 191.211 219.242 183.634 215.85C182.713 215.426 178.04 213.235 175.491 207.935C171.808 200.303 175.632 192.671 176.411 191.258C182.359 180.163 199.567 175.429 205.515 180.941Z" fill="#333333"/>
<path d="M205.657 141.862C208.348 142.427 209.976 146.173 213.234 153.734C215.995 160.165 217.27 165.394 217.837 167.867C218.757 172.178 219.253 175.853 219.465 178.609C217.553 179.174 215.641 179.669 213.729 180.234C213.305 182.707 212.384 186.382 210.543 190.481C207.994 196.134 205.869 201.01 200.912 203.271C195.177 205.886 189.016 203.554 186.962 202.565C186.183 204.543 185.05 206.805 183.563 209.207C182.501 210.903 181.368 212.317 180.377 213.518C173.933 215.143 170.959 213.447 169.826 212.599C163.877 208.218 164.373 194.085 173.508 178.114C173.012 177.337 172.233 176.206 171.242 174.934C169.188 172.39 168.48 172.319 167.56 170.835C167.276 170.411 165.081 166.666 166.852 163.274C167.701 161.649 169.472 160.235 171.454 160.094C173.862 159.882 174.641 161.79 176.694 162.355C180.235 163.415 184.13 159.599 193.831 150.483C201.975 142.851 203.603 141.438 205.657 141.862Z" fill="white"/>
<path d="M212.455 153.451C215.783 161.79 217.907 170.482 218.686 179.457C218.757 180.446 220.386 180.446 220.315 179.457C219.536 170.341 217.412 161.507 214.013 153.027C213.659 152.038 212.101 152.462 212.455 153.451Z" fill="black"/>
<path d="M219.111 178.75C217.199 178.962 215.287 179.245 213.375 179.457C212.384 179.598 212.384 181.153 213.375 181.082C215.287 180.87 217.199 180.587 219.111 180.375C220.103 180.163 220.103 178.609 219.111 178.75Z" fill="black"/>
<path d="M212.95 180.163C211.676 187.23 208.773 194.084 204.028 199.526C198.363 206.168 189.37 202.706 182.43 199.879C181.51 199.455 181.085 201.01 182.005 201.434C188.52 204.119 197.867 207.794 203.745 202.14C209.551 196.628 213.021 188.361 214.437 180.587C214.65 179.598 213.163 179.174 212.95 180.163Z" fill="black"/>
<path d="M185.9 202.918C184.413 206.31 182.572 209.49 180.448 212.529C179.881 213.377 181.226 214.154 181.793 213.306C183.917 210.267 185.758 207.017 187.245 203.695C187.67 202.777 186.325 201.999 185.9 202.918Z" fill="black"/>
<path d="M181.864 201.646C182.926 202.777 184.13 203.766 185.475 204.473C186.396 204.967 187.175 203.625 186.254 203.13C184.98 202.423 183.917 201.575 182.926 200.515C182.289 199.738 181.156 200.869 181.864 201.646Z" fill="black"/>
<path d="M206.507 164.97C206.082 164.122 206.152 163.062 206.719 162.355C206.294 162.214 205.798 162.143 205.374 162.002C205.586 163.203 205.586 164.334 205.515 165.535C205.798 165.253 206.082 164.97 206.294 164.758C206.365 164.899 206.436 165.041 206.577 165.182C206.79 164.193 205.232 163.769 205.019 164.758C204.807 165.606 205.373 166.383 206.294 166.383C206.79 166.383 207.073 166.03 207.073 165.606C207.215 164.263 207.144 162.991 206.931 161.649C206.861 161.083 205.94 160.871 205.586 161.295C204.524 162.638 204.311 164.334 205.161 165.818C205.586 166.666 207.002 165.889 206.507 164.97Z" fill="black"/>
<path d="M202.258 155.43C203.249 152.957 206.082 152.25 208.277 153.663C209.127 154.229 209.906 152.815 209.056 152.321C205.94 150.271 202.116 151.614 200.7 155.006C200.346 155.995 201.904 156.419 202.258 155.43Z" fill="black"/>
<path d="M199 168.15C198.717 168.15 198.363 168.15 198.08 168.15C198.009 168.009 198.009 167.867 197.938 167.726C198.08 167.231 198.292 167.09 198.717 167.231C198.788 167.302 198.93 167.443 199 167.514C199 167.514 199 167.514 199 167.443C198.788 167.09 198.292 166.949 197.938 167.161C197.584 167.373 197.442 167.867 197.655 168.221C197.938 168.574 198.363 168.786 198.788 168.715C199.213 168.574 199.567 168.221 199.567 167.726C199.567 166.666 198.08 166.383 197.584 167.231C197.372 167.585 197.513 168.079 197.867 168.291C198.292 168.645 198.788 168.503 199 168.15Z" fill="black"/>
<path d="M202.541 171.401C202.399 171.542 202.187 171.754 201.975 171.895C201.975 171.895 201.974 171.895 202.045 171.895C201.904 171.895 201.762 171.895 201.62 171.895C201.62 171.895 201.55 171.895 201.55 171.825C201.479 171.754 201.337 171.613 201.266 171.542V171.613C201.266 171.401 201.196 171.189 201.196 170.977C201.266 170.906 201.337 170.835 201.408 170.765C201.054 171.047 200.912 171.471 201.125 171.825C201.337 172.178 201.904 172.39 202.187 172.107C202.683 171.754 203.037 171.047 202.47 170.553C202.258 170.341 201.904 170.199 201.55 170.341C201.196 170.411 201.054 170.623 200.912 170.977C200.771 171.401 201.054 171.825 201.479 171.966C201.974 172.107 202.399 171.825 202.541 171.401Z" fill="black"/>
<path d="M196.947 171.471C196.876 171.471 196.876 171.471 196.805 171.471C195.814 171.471 195.743 173.097 196.805 173.097C196.876 173.097 196.876 173.097 196.947 173.097C198.009 173.097 198.009 171.471 196.947 171.471Z" fill="black"/>
<path d="M203.32 181.93C204.453 185.393 206.223 188.502 209.764 189.845C210.684 190.198 211.109 188.714 210.189 188.29C207.285 187.159 205.798 184.262 204.878 181.435C204.524 180.517 203.037 180.941 203.32 181.93Z" fill="black"/>
<path d="M203.108 182.778C203.532 182.142 204.241 181.789 205.09 181.647C205.515 181.577 205.728 181.011 205.657 180.658C205.515 180.163 205.09 180.022 204.665 180.093C203.462 180.234 202.47 180.941 201.762 181.93C201.125 182.778 202.47 183.626 203.108 182.778Z" fill="black"/>
<path d="M173.012 173.591C168.693 175.146 166.356 168.503 167.135 165.394C167.56 163.769 168.693 161.861 170.392 161.366C172.729 160.659 174.853 162.497 176.34 163.91C177.049 164.617 178.182 163.486 177.473 162.779C175.561 160.942 173.225 159.175 170.392 159.741C167.843 160.235 166.285 162.638 165.648 164.97C164.515 169.281 167.984 177.054 173.437 175.146C174.428 174.792 174.004 173.238 173.012 173.591Z" fill="black"/>
<path d="M200.063 143.417C199.213 144.406 197.938 146.031 196.451 148.151C191.069 155.995 191.565 159.175 187.812 161.437C184.909 163.203 180.447 163.769 177.048 162.355C174.499 161.295 173.791 159.67 171.596 159.741C169.188 159.811 166.922 161.79 166.002 164.122C164.869 166.878 166.002 169.422 166.781 171.047C167.489 172.531 168.48 174.722 170.605 175.217C171.95 175.499 173.154 175.005 173.791 174.651C173.72 175.429 173.579 176.63 173.508 178.114C173.154 184.262 173.862 188.502 174.145 191.258C174.853 197.901 175.491 203.201 173.508 208.218C170.463 215.709 162.886 219.03 160.124 220.231C148.369 225.39 137.464 221.079 135.977 220.443C133.64 219.454 122.452 214.861 119.69 204.402C117.991 198.113 119.903 191.753 120.682 189.067C121.036 187.937 121.956 185.11 123.797 181.859C127.834 174.651 133.64 170.27 137.677 167.797C139.022 162.921 141.288 155.925 145.254 147.939C149.715 138.894 152.193 133.877 157.858 129.213C166.851 121.793 177.048 120.874 180.377 120.662C182.076 120.521 190.432 120.026 200.346 124.054C207.356 126.881 215.571 130.273 218.97 138.682C222.864 148.505 217.341 158.257 216.279 160.094C215.995 158.893 215.429 157.055 214.225 155.289C212.455 152.674 210.472 151.614 207.498 149.565C205.586 148.081 203.037 146.173 200.063 143.417Z" fill="#333333"/>
<path d="M170.888 213.235C173.933 215.002 177.473 215.426 180.872 214.295C182.147 213.871 181.581 211.822 180.306 212.246C177.473 213.165 174.57 212.882 171.95 211.398C170.746 210.762 169.684 212.599 170.888 213.235Z" fill="black"/>
<path opacity="0.14" d="M167.559 170.977C168.126 172.602 169.613 173.733 171.241 173.945C173.012 174.157 174.782 173.309 175.702 171.754C175.348 174.086 174.994 178.821 177.19 184.05C180.164 191.258 185.97 194.65 188.52 196.134C194.751 199.667 200.699 199.879 203.603 199.809C202.965 200.939 201.549 202.777 199.141 203.978C193.406 206.805 187.387 202.989 187.032 202.777C185.475 206.169 183.846 208.642 182.571 210.409C180.801 212.811 180.093 213.377 179.597 213.589C176.198 215.567 171.737 213.518 170.462 212.882C169.046 214.225 166.993 215.921 164.302 217.546C162.036 218.889 155.946 222.422 147.519 222.493C147.519 222.493 136.189 222.493 127.054 214.861C123.514 211.893 122.027 209.278 121.602 208.43C121.248 207.723 119.761 204.897 119.407 200.303C118.628 191.47 122.451 183.979 124.576 180.587C128.4 174.51 133.286 170.906 136.402 168.998C136.189 169.775 133.569 180.729 139.376 186.029C146.669 192.601 163.169 186.382 166.78 176.913C167.701 174.581 167.701 172.39 167.559 170.977Z" fill="#111111"/>
<path opacity="0.07" d="M176.199 190.551C175.632 190.834 176.978 194.509 178.252 197.123C180.306 201.434 182.855 204.614 184.696 206.522C185.192 205.25 185.688 203.978 186.183 202.777C187.812 203.483 190.857 204.473 194.681 204.261C197.23 204.119 199.284 203.483 200.7 202.918C189.795 202.706 184.271 199.385 181.226 196.346C178.748 193.873 176.765 190.269 176.199 190.551Z" fill="#3D3D3D"/>
<path d="M352.097 125.326C351.106 124.761 350.893 123.418 350.752 122.499C350.256 119.178 352.734 116.493 353.159 115.927C355.779 113.03 357.266 114.514 359.745 111.829C361.586 109.85 361.444 108.225 364.277 105.61C366.118 103.843 366.755 104.055 366.897 104.126C367.888 104.55 367.038 106.741 368.03 110.133C368.88 112.959 369.942 112.959 370.296 115.362C370.367 115.998 370.862 119.178 368.95 121.015C368.101 121.863 366.968 122.075 364.631 122.499C361.94 122.994 361.586 122.711 359.745 123.065C355.284 123.913 353.726 126.245 352.097 125.326Z" fill="white"/>
<path d="M351.885 122.358C341.192 133.382 330.499 144.477 319.806 155.501C318.461 157.055 318.39 159.387 319.594 160.942C320.939 162.638 323.347 163.062 325.259 161.861C336.235 149.141 347.14 136.35 358.116 123.63C356.062 123.206 354.009 122.782 351.885 122.358Z" fill="black"/>
<path d="M313.221 182.707C313.575 183.626 312.442 185.534 306.281 189.633C304.511 189.279 303.024 188.29 302.741 187.018C302.316 184.898 305.361 183.131 306.706 182.495C309.185 181.365 312.725 181.435 313.221 182.707Z" fill="black"/>
<path d="M188.662 211.822C184.838 212.67 178.111 214.295 174.995 219.807C172.941 223.411 173.366 227.227 173.508 228.57C174.216 234.577 178.394 239.594 183.138 241.785C188.945 244.399 194.964 242.421 198.009 241.361C224.493 232.245 237.735 227.722 243.117 225.037C258.695 217.193 276.044 208.359 295.801 191.965C300.9 187.725 304.936 183.979 307.768 181.294C308.901 181.93 311.451 183.131 314.496 182.778C316.974 182.495 318.603 181.365 321.01 179.669C322.71 178.467 324.693 177.054 326.463 174.439C328.162 171.966 328.729 169.775 329.225 167.938C329.72 165.889 330.712 162.214 329.437 161.437C328.516 160.871 327.525 162.426 325.047 162.497C324.834 162.497 321.789 162.497 320.444 160.589C319.169 158.822 320.515 157.197 319.382 155.783C318.178 154.229 315.062 154.37 313.079 154.935C308.476 156.349 306.281 161.437 304.865 164.122C300.97 171.825 295.376 175.994 284.967 183.838C276.894 189.915 269.671 192.742 259.97 196.629C256.146 198.183 248.852 201.01 239.222 203.342C223.006 207.158 210.189 207.017 188.662 211.822Z" fill="white"/>
<path d="M177.049 219.101C184.342 211.822 195.814 211.539 205.444 210.197C216.704 208.642 227.963 206.946 239.009 204.331C258.625 199.808 278.098 192.247 293.464 178.962C297.501 175.429 301.254 171.542 304.369 167.09C307.202 163.062 312.584 151.19 319.24 156.843C320.302 157.691 321.789 156.207 320.727 155.359C318.178 153.169 314.779 153.027 311.805 154.511C307.627 156.631 305.715 161.295 303.236 165.041C296.792 174.793 287.02 182.283 276.965 188.007C255.792 200.021 231.433 204.331 207.64 207.794C196.876 209.349 183.847 209.49 175.632 217.617C174.57 218.535 176.057 220.019 177.049 219.101Z" fill="black"/>
<path d="M175.491 216.557C170.746 224.613 171.667 235.283 179.598 241.007C189.087 247.862 202.399 241.36 212.101 238.039C234.973 230.124 256.783 219.383 277.036 206.098C288.295 198.749 298.988 190.551 309.114 181.718C310.176 180.799 308.618 179.315 307.627 180.234C275.832 207.935 237.239 229.842 196.309 240.795C189.299 242.703 182.005 242.279 177.473 235.919C173.508 230.478 174.004 223.27 177.332 217.687C178.04 216.486 176.199 215.426 175.491 216.557Z" fill="black"/>
<path d="M328.092 159.953C328.446 161.578 328.8 163.345 328.658 165.041C328.375 167.373 327.242 168.15 326.392 170.058C326.038 170.906 325.967 171.754 325.684 172.602C325.117 174.51 324.338 174.934 322.993 176.065C321.506 177.266 320.656 178.679 319.382 180.022C317.328 182.213 316.124 181.506 313.575 181.223C311.734 181.011 309.822 180.729 307.981 180.517C306.635 180.375 306.635 182.495 307.981 182.637C311.026 183.061 316.195 184.827 319.028 183.343C320.161 182.778 320.798 181.718 321.506 180.729C322.427 179.457 323.276 178.397 324.693 177.69C325.401 177.337 325.755 177.619 326.392 177.054C327.171 176.418 327.383 175.358 327.596 174.439C328.092 172.178 328.8 170.694 329.791 168.715C331.278 165.818 330.782 162.567 330.145 159.529C329.862 158.045 327.808 158.61 328.092 159.953Z" fill="black"/>
<path d="M319.382 155.995C317.753 158.398 319.028 161.861 321.577 162.991C324.551 164.334 327.879 162.355 329.366 159.741C330.074 158.539 328.233 157.479 327.525 158.681C326.605 160.306 324.693 161.79 322.781 161.154C321.081 160.659 320.161 158.539 321.223 157.055C321.931 155.925 320.09 154.865 319.382 155.995Z" fill="black"/>
<path d="M320.727 156.985C331.42 145.89 341.971 134.654 352.38 123.277C353.301 122.287 351.814 120.733 350.893 121.793C340.484 133.17 329.933 144.406 319.24 155.501C318.249 156.419 319.736 157.974 320.727 156.985Z" fill="black"/>
<path d="M329.295 159.246C339.492 147.515 349.619 135.785 359.816 124.054C360.736 122.994 359.178 121.51 358.328 122.57C348.131 134.301 338.005 146.031 327.808 157.762C326.888 158.822 328.375 160.306 329.295 159.246Z" fill="black"/>
<path d="M312.371 182.425C311.026 183.767 309.68 185.181 308.335 186.523C307.91 186.947 307.273 187.866 306.777 188.149C305.007 189.067 304.086 187.301 303.449 186.17C302.741 184.969 300.9 186.029 301.608 187.23C302.67 188.997 304.44 191.258 306.777 190.551C308.052 190.198 308.972 188.926 309.822 188.007C311.167 186.665 312.513 185.251 313.858 183.909C314.85 182.919 313.292 181.435 312.371 182.425Z" fill="black"/>
<path d="M359.249 123.771C363.498 125.679 368.667 124.549 370.862 120.167C371.925 118.047 371.995 115.503 371.216 113.313C369.871 109.779 364.985 106.67 369.304 102.995C370.367 102.077 368.809 100.593 367.817 101.511C365.339 103.631 364.631 106.882 366.259 109.709C367.817 112.465 370.296 114.019 369.517 117.623C368.667 121.863 364.135 123.63 360.382 121.934C359.037 121.369 357.974 123.206 359.249 123.771Z" fill="black"/>
<path d="M352.239 121.439C352.664 118.33 353.796 116.281 356.558 114.726C357.974 113.949 359.462 113.313 360.736 112.323C363.356 110.203 364.135 106.317 367.251 104.762C368.455 104.126 367.393 102.359 366.189 102.925C364.418 103.773 363.356 105.115 362.365 106.811C360.807 109.285 359.391 110.91 356.771 112.253C352.522 114.443 350.752 116.634 350.114 121.439C349.973 122.782 352.097 122.782 352.239 121.439Z" fill="black"/>
<path d="M351.885 123.489C353.867 122.711 355.921 122.994 357.62 124.266C358.683 125.114 359.745 123.277 358.683 122.429C356.558 120.803 353.726 120.45 351.247 121.439C350.043 121.934 350.61 123.983 351.885 123.489Z" fill="black"/>
<path d="M358.895 113.737C361.657 112.818 364.489 112.747 367.322 113.454C368.667 113.807 369.234 111.758 367.888 111.405C364.702 110.627 361.444 110.698 358.328 111.687C357.054 112.111 357.62 114.161 358.895 113.737Z" fill="#5222D0"/>
<path d="M357.691 113.737C362.861 111.546 364.418 105.539 369.234 102.854C368.809 102.289 368.384 101.723 367.959 101.158C364.277 104.479 367.534 109.002 368.455 112.677C368.95 112.253 369.517 111.899 370.013 111.475C367.322 110.345 364.631 109.85 361.728 110.062C362.011 110.627 362.365 111.122 362.648 111.687C363.639 109.779 364.843 108.083 366.189 106.387C365.622 106.034 364.985 105.681 364.418 105.327C363.852 106.811 363.144 108.649 363.427 110.203C363.498 110.627 363.994 110.981 364.418 110.981C366.118 110.91 366.543 108.578 367.109 107.306C366.472 107.094 365.764 106.953 365.127 106.741C365.268 107.801 365.622 109.073 365.481 110.203C365.622 109.921 365.835 109.567 365.976 109.285C365.481 109.567 363.569 109.355 362.719 109.567C361.303 109.85 360.099 110.345 358.824 111.051C357.904 111.546 358.329 113.101 359.391 113.03C361.161 112.889 362.931 112.677 364.702 112.535C366.047 112.394 366.047 110.274 364.702 110.415C362.931 110.557 361.161 110.769 359.391 110.91C359.603 111.546 359.745 112.253 359.957 112.889C361.444 112.111 363.073 111.546 364.772 111.475C365.41 111.405 366.401 111.687 366.968 111.263C368.242 110.345 367.393 108.154 367.251 106.811C367.109 105.893 365.764 105.186 365.268 106.246C365.197 106.458 364.064 108.861 364.418 108.861C364.772 109.143 365.127 109.355 365.41 109.638C365.197 108.578 366.047 106.811 366.401 105.893C366.755 104.903 365.268 104.055 364.631 104.833C363.144 106.599 361.869 108.507 360.736 110.557C360.382 111.193 360.807 112.253 361.657 112.182C364.206 111.97 366.543 112.323 368.88 113.313C369.729 113.666 370.721 113.101 370.437 112.111C369.729 109.285 366.614 105.115 369.375 102.642C370.296 101.794 369.092 100.381 368.101 100.946C363.356 103.631 361.657 109.638 356.558 111.829C355.354 112.465 356.487 114.231 357.691 113.737Z" fill="#AF1C2A"/>
<path d="M368.03 100.663C365.056 102.501 363.215 105.257 361.019 107.871C359.674 109.497 358.187 110.486 356.7 111.899C356.133 112.394 355.638 112.677 355.638 113.454C355.638 113.595 355.708 113.807 355.921 113.878C360.382 115.786 365.339 110.698 369.729 114.302C370.013 114.514 370.367 114.514 370.579 114.161C371.854 112.323 369.021 110.557 367.959 109.426C367.605 109.073 366.897 109.426 367.038 109.921C367.251 110.627 367.18 110.557 367.676 111.122C368.101 111.687 369.021 111.122 368.596 110.557C368.455 110.203 368.242 109.921 368.101 109.567C367.817 109.709 367.534 109.921 367.18 110.062C367.676 110.557 370.296 112.606 369.659 113.525C369.942 113.454 370.225 113.454 370.508 113.383C369.021 112.182 367.322 111.617 365.339 111.687C364.206 111.758 363.073 111.97 361.94 112.182C361.019 112.394 360.17 112.606 359.249 112.677C358.258 112.818 357.054 113.383 357.833 112.041C358.258 111.334 359.532 110.698 360.099 110.133C360.949 109.285 361.727 108.366 362.436 107.377C364.277 105.115 365.976 102.854 368.455 101.299C369.163 101.229 368.596 100.31 368.03 100.663Z" fill="#282828"/>
<path d="M357.125 114.231C359.249 114.514 361.303 113.807 363.427 113.525C365.197 113.313 366.614 113.595 368.242 114.161C369.163 114.514 369.729 114.726 370.721 114.585C371.075 114.514 371.287 114.302 371.216 113.949C371.075 113.03 370.862 112.535 370.367 111.758C370.013 111.193 369.092 111.758 369.446 112.323C369.942 112.889 370.154 113.525 370.225 114.231C370.367 114.019 370.579 113.807 370.721 113.595C368.738 113.807 366.755 112.394 364.702 112.394C362.294 112.465 359.816 113.595 357.408 113.242C356.7 113.101 356.417 114.09 357.125 114.231Z" fill="#282828"/>
<path d="M367.18 102.501C367.534 102.006 367.959 101.582 368.526 101.299C368.667 101.229 369.163 100.875 369.304 101.017C369.517 101.158 368.95 101.582 368.809 101.653C367.959 102.359 367.392 103.278 366.968 104.267C366.684 104.903 367.747 105.186 367.959 104.55C368.384 103.561 369.092 102.925 369.871 102.147C370.367 101.723 370.65 101.087 370.154 100.451C369.092 99.0379 367.038 100.875 366.33 101.794C365.976 102.289 366.755 103.066 367.18 102.501Z" fill="#282828"/>
<path d="M369.588 100.169C368.384 100.946 367.534 102.147 367.18 103.561C367.038 104.197 368.03 104.479 368.171 103.843C368.455 102.713 369.092 101.794 370.083 101.087C370.721 100.663 370.154 99.7446 369.588 100.169Z" fill="#282828"/>
<path d="M176.34 218.959C178.606 214.507 186.821 212.811 191.353 212.246C192.698 212.034 192.132 209.985 190.786 210.197C185.688 210.903 177.119 212.882 174.499 217.899C173.933 219.101 175.774 220.231 176.34 218.959Z" fill="black"/>
<path opacity="0.13" d="M173.933 229.206C180.306 228.782 189.582 227.934 200.558 225.814C231.999 219.807 254.376 208.147 268.043 200.939C279.373 194.933 294.385 185.958 310.884 173.026C318.107 170.694 322.568 167.514 325.401 164.97C327.313 163.274 328.729 161.578 329.437 161.931C330.57 162.567 328.8 168.433 326.392 172.673C324.268 176.489 321.789 178.679 321.01 179.386C319.028 181.082 317.895 182.283 315.983 182.778C312.442 183.697 309.255 181.789 308.193 181.082C305.573 183.131 301.749 186.17 297.005 189.774C277.886 204.261 268.255 211.539 255.58 218.465C243.896 224.825 234.123 228.641 215.075 235.99C213.305 236.697 210.968 237.474 206.294 239.029C193.831 243.198 190.857 243.693 187.387 243.057C185.971 242.774 182.501 242.138 179.315 239.382C175.137 235.637 174.216 230.831 173.933 229.206Z" fill="#3D3D3D"/>
<path opacity="0.19" d="M230.087 229.7C229.945 229.488 231.149 228.499 257.704 211.681C292.685 189.491 290.207 191.47 293.889 188.785C309.185 177.478 315.983 169.846 319.523 172.107C321.931 173.662 322.356 179.315 319.736 181.789C317.47 183.979 312.725 183.767 308.476 180.658C299.908 188.29 287.162 198.678 270.379 209.207C250.552 221.432 230.583 230.548 230.087 229.7Z" fill="#3D3D3D"/>
</svg>
